<svg width="19" height="19" viewBox="0 0 19 19" fill="none" xmlns="http://www.w3.org/2000/svg">
<g clip-path="url(#clip0_226_432)">
<path d="M9.49977 0.760048C9.44941 0.759336 9.39942 0.768639 9.35269 0.787416C9.30596 0.806193 9.26343 0.83407 9.22757 0.869427C9.19171 0.904784 9.16323 0.946915 9.1438 0.993373C9.12436 1.03983 9.11435 1.08969 9.11435 1.14005C9.11435 1.19041 9.12436 1.24026 9.1438 1.28672C9.16323 1.33318 9.19171 1.37531 9.22757 1.41067C9.26343 1.44603 9.30596 1.4739 9.35269 1.49268C9.39942 1.51146 9.44941 1.52076 9.49977 1.52005C13.9114 1.52005 17.4798 5.08842 17.4798 9.50005C17.4798 13.9117 13.9114 17.48 9.49977 17.48C5.08814 17.48 1.51977 13.9117 1.51977 9.50005C1.51977 6.95683 2.70944 4.69867 4.55977 3.23747V5.70005C4.55905 5.7504 4.56836 5.8004 4.58713 5.84712C4.60591 5.89385 4.63379 5.93638 4.66914 5.97224C4.7045 6.0081 4.74663 6.03658 4.79309 6.05601C4.83955 6.07545 4.88941 6.08546 4.93977 6.08546C4.99013 6.08546 5.03998 6.07545 5.08644 6.05601C5.1329 6.03658 5.17503 6.0081 5.21039 5.97224C5.24574 5.93638 5.27362 5.89385 5.2924 5.84712C5.31117 5.8004 5.32048 5.7504 5.31977 5.70005V2.48934V1.90005H1.51977C1.46941 1.89934 1.41942 1.90864 1.37269 1.92742C1.32596 1.94619 1.28343 1.97407 1.24757 2.00943C1.21171 2.04478 1.18323 2.08692 1.1638 2.13337C1.14436 2.17983 1.13435 2.22969 1.13435 2.28005C1.13435 2.33041 1.14436 2.38026 1.1638 2.42672C1.18323 2.47318 1.21171 2.51531 1.24757 2.55067C1.28343 2.58603 1.32596 2.6139 1.37269 2.63268C1.41942 2.65146 1.46941 2.66076 1.51977 2.66005H4.06547C2.05256 4.26168 0.759766 6.73068 0.759766 9.50005C0.759766 14.3224 4.67739 18.24 9.49977 18.24C14.3221 18.24 18.2398 14.3224 18.2398 9.50005C18.2398 4.67767 14.3221 0.760048 9.49977 0.760048Z" fill="#FDFDFD"/>
</g>
<defs>
<clipPath id="clip0_226_432">
<rect width="19" height="19" fill="white"/>
</clipPath>
</defs>
</svg>
